<svg width="94" height="24" viewBox="0 0 94 24" fill="none" xmlns="http://www.w3.org/2000/svg">
<g filter="url(#filter0_d_475_68611)">
<path d="M82.735 23.168C80.5163 23.168 78.5537 22.6773 76.847 21.696C75.1403 20.7147 73.7963 19.3493 72.815 17.6C71.855 15.8507 71.375 13.8453 71.375 11.584C71.375 9.32267 71.855 7.328 72.815 5.6C73.7963 3.85067 75.1297 2.48533 76.815 1.504C78.5003 0.501333 80.4417 0 82.639 0C84.8577 0 86.8097 0.501333 88.495 1.504C90.2017 2.48533 91.5243 3.85067 92.463 5.6C93.423 7.328 93.903 9.32267 93.903 11.584C93.903 13.8453 93.423 15.8507 92.463 17.6C91.5243 19.3493 90.2123 20.7147 88.527 21.696C86.863 22.6773 84.9323 23.168 82.735 23.168ZM82.735 19.776C84.1857 19.776 85.4657 19.424 86.575 18.72C87.6843 18.016 88.5483 17.056 89.167 15.84C89.807 14.6027 90.127 13.184 90.127 11.584C90.127 10.0053 89.807 8.59733 89.167 7.36C88.527 6.12267 87.6417 5.16267 86.511 4.48C85.4017 3.776 84.111 3.424 82.639 3.424C81.1883 3.424 79.8977 3.776 78.767 4.48C77.6577 5.16267 76.7723 6.12267 76.111 7.36C75.471 8.576 75.151 9.984 75.151 11.584C75.151 13.184 75.471 14.6027 76.111 15.84C76.7723 17.056 77.6683 18.016 78.799 18.72C79.951 19.424 81.263 19.776 82.735 19.776Z" fill="#444444"/>
</g>
<g filter="url(#filter1_d_475_68611)">
<path d="M60.3363 23.168C58.0749 23.168 56.0589 22.6773 54.2882 21.696C52.5389 20.6933 51.1629 19.328 50.1602 17.6C49.1576 15.8507 48.6562 13.856 48.6562 11.616C48.6562 9.33333 49.1576 7.328 50.1602 5.6C51.1629 3.85067 52.5389 2.48533 54.2882 1.504C56.0589 0.501333 58.0749 0 60.3363 0C61.6376 0 62.8536 0.202667 63.9842 0.608C65.1362 1.01333 66.1709 1.568 67.0882 2.272C68.0056 2.95467 68.7523 3.75467 69.3283 4.672L66.3202 6.592C65.9149 5.97333 65.3922 5.41867 64.7522 4.928C64.1122 4.43733 63.4082 4.064 62.6402 3.808C61.8936 3.53067 61.1256 3.392 60.3363 3.392C58.8003 3.392 57.4349 3.744 56.2402 4.448C55.0669 5.152 54.1389 6.12267 53.4562 7.36C52.7736 8.576 52.4322 9.99467 52.4322 11.616C52.4322 13.1947 52.7629 14.6027 53.4242 15.84C54.1069 17.0773 55.0456 18.048 56.2402 18.752C57.4562 19.456 58.8536 19.808 60.4322 19.808C61.6696 19.808 62.7789 19.552 63.7603 19.04C64.7416 18.528 65.5096 17.8133 66.0643 16.896C66.6403 15.9787 66.9282 14.9227 66.9282 13.728L70.4803 13.28C70.4803 15.3067 70.0429 17.0667 69.1682 18.56C68.3149 20.032 67.1202 21.1733 65.5842 21.984C64.0696 22.7733 62.3203 23.168 60.3363 23.168ZM61.5522 14.016V11.008H70.4803V13.504L68.4963 14.016H61.5522Z" fill="#444444"/>
</g>
<g filter="url(#filter2_d_475_68611)">
<path d="M43.3125 22.7838V0.383789H47.0245V22.7838H43.3125Z" fill="#444444"/>
</g>
<g filter="url(#filter3_d_475_68611)">
<path d="M25.2188 22.7838V0.383789H33.1227C34.6587 0.383789 36.0134 0.682456 37.1868 1.27979C38.3601 1.87712 39.2774 2.70912 39.9388 3.77579C40.6001 4.82112 40.9307 6.03712 40.9307 7.42379C40.9307 8.81046 40.5787 10.0371 39.8747 11.1038C39.1921 12.1705 38.2427 13.0131 37.0267 13.6318C35.8107 14.2291 34.4348 14.5278 32.8988 14.5278H28.9307V22.7838H25.2188ZM37.6348 22.7838L32.3867 13.6958L35.2668 11.7118L41.8268 22.7838H37.6348ZM28.9307 11.1038H33.2827C34.0081 11.1038 34.6481 10.9438 35.2028 10.6238C35.7788 10.3038 36.2374 9.86646 36.5788 9.31179C36.9414 8.75712 37.1227 8.12779 37.1227 7.42379C37.1227 6.35712 36.7387 5.48246 35.9707 4.79979C35.2027 4.11712 34.2108 3.77579 32.9948 3.77579H28.9307V11.1038Z" fill="#444444"/>
</g>
<path d="M0 10.6154V23H12.3846C18.2473 23 23 18.2473 23 12.3846V7.07692L19.5007 11V12.3846C19.5007 16.2931 16.2931 19.4615 12.3846 19.4615H3.50073V10.6154C3.50073 6.70695 6.66918 3.53846 10.5777 3.53846H19.5007L12.1787 10.8273C11.4247 11.578 11.0007 12.5982 11.0007 13.6622V16L22.0104 4.56615C22.6453 3.90681 23 3.02711 23 2.1118V0H10.6154C4.75267 0 0 4.75267 0 10.6154Z" fill="#36A16B"/>
<defs>
<filter id="filter0_d_475_68611" x="71.375" y="0" width="22.5312" height="23.168" filterUnits="userSpaceOnUse" color-interpolation-filters="sRGB">
<feFlood flood-opacity="0" result="BackgroundImageFix"/>
<feColorMatrix in="SourceAlpha" type="matrix" values="0 0 0 0 0 0 0 0 0 0 0 0 0 0 0 0 0 0 127 0" result="hardAlpha"/>
<feOffset/>
<feComposite in2="hardAlpha" operator="out"/>
<feColorMatrix type="matrix" values="0 0 0 0 0 0 0 0 0 0 0 0 0 0 0 0 0 0 0.25 0"/>
<feBlend mode="normal" in2="BackgroundImageFix" result="effect1_dropShadow_475_68611"/>
<feBlend mode="normal" in="SourceGraphic" in2="effect1_dropShadow_475_68611" result="shape"/>
</filter>
<filter id="filter1_d_475_68611" x="48.6562" y="0" width="21.8203" height="23.168" filterUnits="userSpaceOnUse" color-interpolation-filters="sRGB">
<feFlood flood-opacity="0" result="BackgroundImageFix"/>
<feColorMatrix in="SourceAlpha" type="matrix" values="0 0 0 0 0 0 0 0 0 0 0 0 0 0 0 0 0 0 127 0" result="hardAlpha"/>
<feOffset/>
<feComposite in2="hardAlpha" operator="out"/>
<feColorMatrix type="matrix" values="0 0 0 0 0 0 0 0 0 0 0 0 0 0 0 0 0 0 0.25 0"/>
<feBlend mode="normal" in2="BackgroundImageFix" result="effect1_dropShadow_475_68611"/>
<feBlend mode="normal" in="SourceGraphic" in2="effect1_dropShadow_475_68611" result="shape"/>
</filter>
<filter id="filter2_d_475_68611" x="43.3125" y="0.383789" width="3.71094" height="22.3999" filterUnits="userSpaceOnUse" color-interpolation-filters="sRGB">
<feFlood flood-opacity="0" result="BackgroundImageFix"/>
<feColorMatrix in="SourceAlpha" type="matrix" values="0 0 0 0 0 0 0 0 0 0 0 0 0 0 0 0 0 0 127 0" result="hardAlpha"/>
<feOffset/>
<feComposite in2="hardAlpha" operator="out"/>
<feColorMatrix type="matrix" values="0 0 0 0 0 0 0 0 0 0 0 0 0 0 0 0 0 0 0.25 0"/>
<feBlend mode="normal" in2="BackgroundImageFix" result="effect1_dropShadow_475_68611"/>
<feBlend mode="normal" in="SourceGraphic" in2="effect1_dropShadow_475_68611" result="shape"/>
</filter>
<filter id="filter3_d_475_68611" x="25.2188" y="0.383789" width="16.6094" height="22.3999" filterUnits="userSpaceOnUse" color-interpolation-filters="sRGB">
<feFlood flood-opacity="0" result="BackgroundImageFix"/>
<feColorMatrix in="SourceAlpha" type="matrix" values="0 0 0 0 0 0 0 0 0 0 0 0 0 0 0 0 0 0 127 0" result="hardAlpha"/>
<feOffset/>
<feComposite in2="hardAlpha" operator="out"/>
<feColorMatrix type="matrix" values="0 0 0 0 0 0 0 0 0 0 0 0 0 0 0 0 0 0 0.25 0"/>
<feBlend mode="normal" in2="BackgroundImageFix" result="effect1_dropShadow_475_68611"/>
<feBlend mode="normal" in="SourceGraphic" in2="effect1_dropShadow_475_68611" result="shape"/>
</filter>
</defs>
</svg>
