<svg width="16" height="16" viewBox="0 0 16 16" fill="none" xmlns="http://www.w3.org/2000/svg">
<path d="M8.0013 8.66927C8.36949 8.66927 8.66797 8.37079 8.66797 8.0026C8.66797 7.63441 8.36949 7.33594 8.0013 7.33594C7.63311 7.33594 7.33464 7.63441 7.33464 8.0026C7.33464 8.37079 7.63311 8.66927 8.0013 8.66927Z" fill="#09090B"/>
<path d="M12.668 8.66927C13.0362 8.66927 13.3346 8.37079 13.3346 8.0026C13.3346 7.63441 13.0362 7.33594 12.668 7.33594C12.2998 7.33594 12.0013 7.63441 12.0013 8.0026C12.0013 8.37079 12.2998 8.66927 12.668 8.66927Z" fill="#09090B"/>
<path d="M3.33464 8.66927C3.70283 8.66927 4.0013 8.37079 4.0013 8.0026C4.0013 7.63441 3.70283 7.33594 3.33464 7.33594C2.96645 7.33594 2.66797 7.63441 2.66797 8.0026C2.66797 8.37079 2.96645 8.66927 3.33464 8.66927Z" fill="#09090B"/>
<path d="M8.0013 8.66927C8.36949 8.66927 8.66797 8.37079 8.66797 8.0026C8.66797 7.63441 8.36949 7.33594 8.0013 7.33594C7.63311 7.33594 7.33464 7.63441 7.33464 8.0026C7.33464 8.37079 7.63311 8.66927 8.0013 8.66927Z" stroke="#444444" stroke-width="1.33" stroke-linecap="round" stroke-linejoin="round"/>
<path d="M12.668 8.66927C13.0362 8.66927 13.3346 8.37079 13.3346 8.0026C13.3346 7.63441 13.0362 7.33594 12.668 7.33594C12.2998 7.33594 12.0013 7.63441 12.0013 8.0026C12.0013 8.37079 12.2998 8.66927 12.668 8.66927Z" stroke="#444444" stroke-width="1.33" stroke-linecap="round" stroke-linejoin="round"/>
<path d="M3.33464 8.66927C3.70283 8.66927 4.0013 8.37079 4.0013 8.0026C4.0013 7.63441 3.70283 7.33594 3.33464 7.33594C2.96645 7.33594 2.66797 7.63441 2.66797 8.0026C2.66797 8.37079 2.96645 8.66927 3.33464 8.66927Z" stroke="#444444" stroke-width="1.33" stroke-linecap="round" stroke-linejoin="round"/>
</svg>
