<svg width="16" height="16" viewBox="0 0 16 16" fill="none" xmlns="http://www.w3.org/2000/svg">
<path d="M1.36719 1.36719H2.70052L4.47385 9.64719C4.53891 9.95043 4.70763 10.2215 4.951 10.4138C5.19436 10.606 5.49712 10.7074 5.80719 10.7005H12.3272C12.6306 10.7 12.9248 10.596 13.1612 10.4057C13.3976 10.2154 13.5619 9.95021 13.6272 9.65385L14.7272 4.70052H3.41385M6.00049 14.0005C6.00049 14.3687 5.70201 14.6672 5.33382 14.6672C4.96563 14.6672 4.66716 14.3687 4.66716 14.0005C4.66716 13.6323 4.96563 13.3338 5.33382 13.3338C5.70201 13.3338 6.00049 13.6323 6.00049 14.0005ZM13.3338 14.0005C13.3338 14.3687 13.0353 14.6672 12.6672 14.6672C12.299 14.6672 12.0005 14.3687 12.0005 14.0005C12.0005 13.6323 12.299 13.3338 12.6672 13.3338C13.0353 13.3338 13.3338 13.6323 13.3338 14.0005Z" stroke="#36A16B" stroke-width="1.33" stroke-linecap="round" stroke-linejoin="round"/>
</svg>
